# xmcd
#
# Track frame offsets: 
#        150
#        18154
#        37990
#        53280
#        69439
#        86973
#        104819
#        120387
#        138001
#        157492
#
# Disc length: 2414 seconds
#
# Revision: 0
# Processed by: cddbd v1.5.2PL0 Copyright (c) Steve Scherf et al.
# Submitted via: ExactAudioCopy v0.95b3
#
DISCID=7e096c0a
DTITLE=Hipbootjoe - Louisiana State Line 
DYEAR=2008
DGENRE=Country
TTITLE0=Down the Road
TTITLE1=Sunny Day
TTITLE2=Holding On
TTITLE3=Four Walls
TTITLE4=Even the Stars
TTITLE5=Louisiana State Line
TTITLE6=Goin' Back Home
TTITLE7=It's All Part of Loving Me
TTITLE8=Thinking Too Much
TTITLE9=Saved
EXTD=
EXTT0=
EXTT1=
EXTT2=
EXTT3=
EXTT4=
EXTT5=
EXTT6=
EXTT7=
EXTT8=
EXTT9=
PLAYORDER=
